# xmcd
#
# Track frame offsets:
#	150
#	2698
#	13114
#	22159
#	40302
#	51857
#	62556
#	73906
#	80787
#	96359
#	109474
#	130738
#	144281
#	155458
#	168122
#	193539
#	205390
#	222558
#	236689
#	251157
#	264673
#	282485
#	298857
#	316093
#	328966
#
# Disc length: 4607 seconds
#
# Revision: 0
# Processed by: cddbd v1.5.2PL0 Copyright (c) Steve Scherf et al.
# Submitted via: EZCDAudioConverter 2.1.7.1
#
DISCID=8911fd19
DTITLE=The Jam - About The Young Idea 1/2
DYEAR=1900
DGENRE=
TTITLE0=In The City [Radio Ad]
TTITLE1=In The City
TTITLE2=Art School
TTITLE3=Away From The Numbers
TTITLE4=Takin' My Love [Demo]
TTITLE5=All Around The World
TTITLE6=The Modern World
TTITLE7=In The Street Today
TTITLE8=News Of The World
TTITLE9=David Watts
TTITLE10=Down In The Tube Station At Midnight
TTITLE11=Billy Hunt
TTITLE12=To Be Someone (Didn't We Have A Nice Time)
TTITLE13=English Rose
TTITLE14=In The Crowd
TTITLE15='A' Bomb In Wardour Street
TTITLE16=Strange Town
TTITLE17=The Butterfly Collector
TTITLE18=When You're Young
TTITLE19=Smithers-Jones
TTITLE20=The Eton Rifles
TTITLE21=Thick As Thieves
TTITLE22=Private Hell
TTITLE23=Saturday's Kids
TTITLE24=Burning Sky [Demo]
EXTD=
EXTT0=
EXTT1=
EXTT2=
EXTT3=
EXTT4=
EXTT5=
EXTT6=
EXTT7=
EXTT8=
EXTT9=
EXTT10=
EXTT11=
EXTT12=
EXTT13=
EXTT14=
EXTT15=
EXTT16=
EXTT17=
EXTT18=
EXTT19=
EXTT20=
EXTT21=
EXTT22=
EXTT23=
EXTT24=
PLAYORDER=
